<?xml version="1.0" standalone="no"?>
<!DOCTYPE svg PUBLIC "-//W3C//DTD SVG 20010904//EN"
 "http://www.w3.org/TR/2001/REC-SVG-20010904/DTD/svg10.dtd">
<svg version="1.0" xmlns="http://www.w3.org/2000/svg"
 width="198.000000pt" height="198.000000pt" viewBox="0 0 89.000000 89.000000"
 preserveAspectRatio="xMidYMid meet">

<g transform="translate(0.000000,96.000000) scale(0.100000,-0.100000)"
fill="#163760" stroke="none">
<path d="M244 868 c-31 -15 -44 -50 -44 -122 l0 -64 37 19 c67 34 164 19 222
-34 61 -56 78 -161 38 -239 l-23 -45 55 -29 c37 -19 63 -42 82 -73 26 -39 29
-54 29 -123 l0 -78 65 0 c75 0 108 13 124 47 7 15 11 110 11 266 l0 242 -123
123 -122 122 -165 -1 c-92 0 -174 -5 -186 -11z m431 -158 l110 -110 -113 0
-112 0 0 110 c0 61 1 110 3 110 1 0 52 -49 112 -110z"/>
<path d="M263 620 c-34 -21 -63 -66 -63 -100 0 -54 65 -120 118 -120 57 0 122
64 122 120 0 56 -65 120 -122 120 -13 0 -37 -9 -55 -20z"/>
<path d="M210 305 c-101 -28 -130 -64 -130 -162 l0 -63 241 0 241 0 -4 74 c-3
62 -7 79 -27 100 -51 54 -215 80 -321 51z"/>
</g>
</svg>
