<svg width="627" height="627" viewBox="0 0 627 627" fill="none" xmlns="http://www.w3.org/2000/svg">
<path d="M277.372 334.893C84.3314 530.944 0.539116 166.168 225.356 99.5801C320.096 71.478 482.301 132.548 435.138 263.34C403.424 351.12 337.138 274.2 277.372 334.893Z" fill="#407BFF"/>
<path opacity="0.9" d="M277.372 334.893C84.3314 530.944 0.539116 166.168 225.356 99.5801C320.096 71.478 482.301 132.548 435.138 263.34C403.424 351.12 337.138 274.2 277.372 334.893Z" fill="white"/>
<path d="M313.5 536.16C447.782 536.16 556.638 529.805 556.638 521.965C556.638 514.125 447.782 507.77 313.5 507.77C179.219 507.77 70.3621 514.125 70.3621 521.965C70.3621 529.805 179.219 536.16 313.5 536.16Z" fill="#F5F5F5"/>
<path d="M258.7 201.443C258.863 201.994 259.152 202.835 259.402 203.537L260.205 205.781C260.757 207.274 261.359 208.753 261.998 210.221C263.248 213.124 264.655 215.958 266.212 218.71C269.296 224.102 273.046 228.98 277.498 232.103L278.275 232.642C278.275 232.642 278.275 232.73 278.463 232.755C279.312 232.733 280.143 232.505 280.883 232.09C283.453 230.729 285.818 229.011 287.906 226.987C290.319 224.778 292.617 222.446 294.79 220.002C297.022 217.494 299.217 214.898 301.286 212.352L307.268 215.964C304.16 222.553 300.256 228.735 295.643 234.373C293.109 237.507 290.105 240.231 286.74 242.448C284.528 243.873 282.026 244.785 279.416 245.119C277.756 245.288 276.078 245.135 274.475 244.668C273.649 244.426 272.851 244.098 272.093 243.69L270.651 242.887C267.146 240.774 263.972 238.154 261.233 235.112C258.615 232.252 256.28 229.144 254.261 225.833C252.28 222.618 250.533 219.266 249.032 215.801C248.292 214.095 247.59 212.365 246.95 210.622C246.624 209.744 246.311 208.866 246.022 207.963C245.734 207.06 245.47 206.233 245.169 205.117L258.7 201.443Z" fill="#B97964"/>
<path d="M271.654 223.601L255.615 232.479C255.615 232.479 255.139 231.789 254.361 230.598C253.797 229.72 253.107 228.567 252.23 227.212C247.514 219.55 239.69 205.556 241.734 199.624C244.856 190.495 256.368 190.646 262.023 201.229C264.758 206.503 267.207 211.92 269.359 217.456C269.949 218.936 270.438 220.227 270.814 221.218C271.353 222.735 271.654 223.601 271.654 223.601Z" fill="#407BFF"/>
<path opacity="0.2" d="M271.654 223.601L255.615 232.479C255.615 232.479 255.139 231.789 254.361 230.598C253.797 229.72 253.107 228.567 252.23 227.212C247.514 219.55 239.69 205.556 241.734 199.624C244.856 190.495 256.368 190.646 262.023 201.229C264.758 206.503 267.207 211.92 269.359 217.456C269.949 218.936 270.438 220.227 270.814 221.218C271.353 222.735 271.654 223.601 271.654 223.601Z" fill="black"/>
<path opacity="0.2" d="M270.864 221.281L254.411 230.598C253.847 229.72 253.157 228.567 252.28 227.212L269.409 217.506C269.948 218.986 270.437 220.278 270.864 221.281Z" fill="black"/>
<path opacity="0.2" d="M241.495 200.728C245.082 198.997 249.22 200.439 253.559 207.311C257.897 214.183 261.622 225.72 262.086 228.943L255.678 232.479C255.678 232.479 240.178 209.869 241.495 200.728Z" fill="black"/>
<path d="M256.368 274.137H206.646C206.295 269.698 207.324 255.252 206.559 236.856C206.086 223.22 204.433 209.651 201.618 196.301C201.392 195.298 201.166 194.307 200.928 193.304C200.928 193.304 203.436 192.79 207.06 192.263C210.057 191.824 213.819 191.373 217.506 191.197C224.544 190.796 231.598 190.796 238.636 191.197C241.884 191.498 245.056 192.038 247.59 192.527C250.825 193.179 253.032 193.781 253.032 193.781C253.032 193.781 264.983 221.858 256.368 274.137Z" fill="#407BFF"/>
<path opacity="0.2" d="M256.368 274.137H206.646C206.295 269.698 207.324 255.252 206.559 236.856C206.086 223.22 204.433 209.651 201.618 196.301C201.392 195.298 201.166 194.307 200.928 193.304C200.928 193.304 203.436 192.79 207.06 192.263C210.057 191.824 213.819 191.373 217.506 191.197C224.544 190.796 231.598 190.796 238.636 191.197C241.884 191.498 245.056 192.038 247.59 192.527C250.825 193.179 253.032 193.781 253.032 193.781C253.032 193.781 264.983 221.858 256.368 274.137Z" fill="black"/>
<path d="M188.564 496.408L195.937 503.004L209.957 488.395L202.596 481.799L188.564 496.408Z" fill="#B97964"/>
<path d="M213.807 510.14H223.099L224.315 488.609H215.011L213.807 510.14Z" fill="#B97964"/>
<path d="M209.957 488.408L202.721 495.932L195.348 489.336L202.583 481.799L209.957 488.408Z" fill="#A76755"/>
<path d="M215.011 488.621H224.315L223.688 499.719H214.384L215.011 488.621Z" fill="#A76755"/>
<path d="M255.891 273.66C255.891 273.66 265.685 341.452 269.033 378.357C271.717 407.951 207.7 496.233 207.7 496.233L195.31 484.583C195.31 484.583 242.072 405.443 238.473 372.488C234.987 340.561 223.174 273.623 223.174 273.623L255.891 273.66Z" fill="#407BFF"/>
<path opacity="0.7" d="M255.891 273.66C255.891 273.66 265.685 341.452 269.033 378.357C271.717 407.951 207.7 496.233 207.7 496.233L195.31 484.583C195.31 484.583 242.072 405.443 238.473 372.488C234.987 340.561 223.174 273.623 223.174 273.623L255.891 273.66Z" fill="black"/>
<path d="M223.588 509.124H213.18C213.093 509.121 213.005 509.134 212.923 509.165C212.842 509.195 212.766 509.241 212.702 509.301C212.638 509.36 212.587 509.432 212.55 509.511C212.514 509.59 212.493 509.676 212.49 509.763L211.989 518.027C211.988 518.462 212.159 518.879 212.464 519.189C212.769 519.499 213.184 519.676 213.619 519.683C217.255 519.62 218.986 519.394 223.651 519.394C226.472 519.394 238.486 519.695 242.385 519.695C246.285 519.695 246.147 515.833 244.53 515.482C237.106 513.914 227.914 511.72 225.293 509.701C224.812 509.311 224.207 509.107 223.588 509.124Z" fill="#263238"/>
<path d="M197.969 500.346L189.003 494.314C188.858 494.201 188.679 494.14 188.495 494.14C188.311 494.14 188.132 494.201 187.987 494.314L181.14 501.224C181.004 501.376 180.904 501.556 180.846 501.751C180.788 501.947 180.774 502.153 180.805 502.354C180.836 502.556 180.912 502.748 181.026 502.917C181.14 503.085 181.291 503.227 181.466 503.331C187.184 507.732 191.31 511.043 194.558 514.704C198.32 518.993 200.364 519.595 209.142 519.595C213.205 519.595 215.5 516.172 213.845 515.645C199.21 511.018 203.123 508.999 199.574 502.214C199.197 501.472 198.646 500.831 197.969 500.346Z" fill="#263238"/>
<path d="M300.182 213.932L303.38 203.7L311.682 209.782C311.682 209.782 307.142 218.898 304.07 218.071L300.182 213.932Z" fill="#B97964"/>
<path d="M312.121 199.787L316.798 205.518L311.682 209.782L303.38 203.7L312.121 199.787Z" fill="#B97964"/>
<path opacity="0.2" d="M206.559 236.855C206.086 223.22 204.433 209.651 201.618 196.301C204.941 196.013 210.622 196.301 211.562 201.706C212.578 207.474 211.299 221.043 206.559 236.855Z" fill="black"/>
<path opacity="0.5" d="M238.473 372.513C236.68 356.073 232.667 330.316 229.218 309.224C231.024 305.688 236.078 298.54 236.078 298.54C240.617 314.227 250.486 373.353 236.416 453.221C221.745 476.871 207.7 496.258 207.7 496.258L205.781 465.761C219.337 440.254 240.968 395.324 238.473 372.513Z" fill="black"/>
<path d="M209.945 206.81L207.75 210.572C206.998 211.876 206.27 213.193 205.568 214.522C204.139 217.18 202.763 219.855 201.443 222.547C200.189 225.243 198.935 227.952 197.819 230.661C196.74 233.332 195.799 236.057 194.997 238.824L194.847 239.326L194.771 239.589C194.73 239.658 194.704 239.735 194.696 239.815C194.658 240.203 194.658 240.593 194.696 240.981C194.825 242.165 195.073 243.333 195.436 244.467C196.305 247.189 197.365 249.846 198.609 252.418C201.117 257.81 204.164 263.29 207.211 268.582L201.706 272.883C197.133 268.232 192.998 263.17 189.354 257.76C187.421 254.898 185.743 251.873 184.338 248.718C183.545 246.919 182.932 245.046 182.507 243.126C182.262 241.967 182.136 240.786 182.131 239.602C182.122 238.888 182.172 238.175 182.281 237.47L182.369 236.956V236.63L182.507 235.99C183.858 229.368 185.94 222.917 188.714 216.754C190.031 213.719 191.473 210.76 193.016 207.863C193.793 206.408 194.583 204.979 195.411 203.549C196.238 202.12 197.054 200.765 198.032 199.248L209.945 206.81Z" fill="#B97964"/>
<path d="M213.268 210.233C210.949 216.655 208.257 222.936 205.205 229.043C204.54 230.422 203.951 231.651 203.424 232.642C202.546 234.385 201.994 235.438 201.994 235.438L183.184 225.005C183.184 225.005 183.423 224.215 183.849 222.886C184.175 221.883 184.601 220.566 185.103 219.049C188.238 210.108 194.646 194.157 200.928 193.241C210.321 191.937 217.08 198.96 213.268 210.233Z" fill="#407BFF"/>
<path opacity="0.2" d="M205.204 229.106C204.54 230.485 203.95 231.714 203.424 232.705L183.824 222.949C184.15 221.945 184.576 220.629 185.078 219.111L205.204 229.106Z" fill="black"/>
<path d="M226.886 510.679C226.041 510.66 225.2 510.55 224.378 510.353C224.336 510.342 224.298 510.319 224.267 510.288C224.236 510.258 224.214 510.219 224.203 510.177C224.198 510.136 224.205 510.094 224.223 510.057C224.24 510.019 224.268 509.987 224.303 509.964C224.591 509.751 227.237 507.958 228.366 508.397C228.495 508.448 228.609 508.531 228.696 508.639C228.784 508.746 228.843 508.875 228.867 509.011C228.925 509.215 228.929 509.43 228.881 509.636C228.833 509.842 228.733 510.033 228.592 510.19C228.102 510.555 227.495 510.729 226.886 510.679ZM225.005 510.04C226.673 510.366 227.889 510.315 228.328 509.889C228.418 509.783 228.48 509.656 228.506 509.52C228.532 509.384 228.523 509.243 228.479 509.112C228.47 509.045 228.443 508.981 228.401 508.928C228.359 508.875 228.303 508.835 228.24 508.811C227.626 508.572 226.084 509.35 225.005 510.04Z" fill="#407BFF"/>
<path d="M224.466 510.378C224.433 510.389 224.398 510.389 224.366 510.378C224.334 510.36 224.307 510.335 224.288 510.304C224.268 510.273 224.256 510.239 224.253 510.202C224.253 510.09 224.039 507.419 224.98 506.516C225.098 506.397 225.243 506.308 225.402 506.256C225.561 506.204 225.73 506.189 225.895 506.215C226.08 506.223 226.257 506.291 226.399 506.409C226.542 506.527 226.642 506.687 226.685 506.867C226.899 507.883 225.507 509.826 224.579 510.378H224.466ZM225.72 506.616C225.634 506.614 225.548 506.629 225.468 506.662C225.388 506.694 225.316 506.743 225.256 506.804C224.74 507.695 224.524 508.728 224.641 509.751C225.444 509.074 226.372 507.594 226.234 506.929C226.234 506.804 226.134 506.654 225.82 506.616H225.72Z" fill="#407BFF"/>
<path d="M203.988 505.362C202.33 505.108 200.747 504.496 199.348 503.569C199.31 503.546 199.28 503.512 199.262 503.472C199.244 503.432 199.239 503.386 199.248 503.343C199.258 503.298 199.281 503.257 199.314 503.226C199.348 503.195 199.39 503.174 199.436 503.168C199.938 503.168 204.339 502.842 205.192 503.845C205.261 503.932 205.308 504.034 205.33 504.143C205.352 504.252 205.347 504.365 205.317 504.472C205.281 504.645 205.202 504.806 205.088 504.942C204.975 505.078 204.829 505.183 204.665 505.249C204.448 505.327 204.219 505.365 203.988 505.362ZM200.226 503.556C202.232 504.66 203.812 505.136 204.515 504.81C204.618 504.768 204.71 504.702 204.782 504.617C204.854 504.532 204.904 504.43 204.929 504.321C204.949 504.285 204.96 504.244 204.96 504.202C204.96 504.16 204.949 504.119 204.929 504.083C204.402 503.606 201.994 503.519 200.201 503.594L200.226 503.556Z" fill="#407BFF"/>
<path d="M199.461 503.644C199.424 503.644 199.387 503.635 199.355 503.617C199.322 503.6 199.294 503.575 199.273 503.544C199.257 503.51 199.249 503.474 199.249 503.437C199.249 503.4 199.257 503.364 199.273 503.331C199.348 503.18 201.029 499.769 203.173 500.823C203.762 501.111 203.825 501.462 203.775 501.7C203.549 502.704 200.753 503.631 199.474 503.669L199.461 503.644ZM202.358 501.048C201.217 501.048 200.239 502.503 199.85 503.18C201.192 503.004 203.223 502.177 203.349 501.587C203.349 501.45 203.248 501.324 202.985 501.186C202.789 501.092 202.575 501.045 202.358 501.048Z" fill="#407BFF"/>
<path d="M204.715 266.613L213.97 265.008L209.217 275.717C209.217 275.717 200.765 275.717 201.154 271.315L204.715 266.613Z" fill="#B97964"/>
<path d="M220.867 270.387L216.528 279.04L209.217 275.717L213.97 265.008L220.867 270.387Z" fill="#B97964"/>
<path d="M194.558 483.906L208.452 496.973L212.917 492.17L197.041 477.699L194.558 483.906Z" fill="#407BFF"/>
<path opacity="0.7" d="M194.558 483.906L208.452 496.973L212.917 492.17L197.041 477.699L194.558 483.906Z" fill="white"/>
<path d="M238.26 273.66C238.26 273.66 239.15 344.712 237.645 371.322C235.99 400.477 227.726 497.035 227.726 497.035H210.672C210.672 497.035 211.173 402.822 210.158 373.968C209.042 342.618 206.157 273.648 206.157 273.648L238.26 273.66Z" fill="#407BFF"/>
<path opacity="0.7" d="M238.26 273.66C238.26 273.66 239.15 344.712 237.645 371.322C235.99 400.477 227.726 497.035 227.726 497.035H210.672C210.672 497.035 211.173 402.822 210.158 373.968C209.042 342.618 206.157 273.648 206.157 273.648L238.26 273.66Z" fill="black"/>
<path d="M209.957 497.035H228.353L229.382 490.577L209.067 491.581L209.957 497.035Z" fill="#407BFF"/>
<path opacity="0.7" d="M209.957 497.035H228.353L229.382 490.577L209.067 491.581L209.957 497.035Z" fill="white"/>
<path opacity="0.2" d="M213.268 210.233C210.949 216.655 208.257 222.936 205.205 229.043C204.54 230.422 203.951 231.651 203.424 232.642C202.546 234.385 201.994 235.438 201.994 235.438L183.184 225.005C183.184 225.005 183.423 224.215 183.849 222.886C184.175 221.883 184.601 220.566 185.103 219.049C188.238 210.108 194.646 194.157 200.928 193.241C210.321 191.937 217.08 198.96 213.268 210.233Z" fill="black"/>
<path d="M246.574 198.433C245.571 201.756 242.812 206.195 235.1 208.465L233.093 209.067L231.049 208.703C215.312 205.882 209.518 197.417 208.477 195.774L206.371 192.263C209.368 191.824 213.13 191.373 216.816 191.197C223.854 190.796 230.909 190.796 237.946 191.197C241.194 191.498 244.367 192.038 246.9 192.527C247.25 194.494 247.138 196.516 246.574 198.433Z" fill="#407BFF"/>
<path opacity="0.4" d="M246.574 198.433C245.571 201.756 242.812 206.195 235.1 208.465L233.093 209.067L231.049 208.703C215.312 205.882 209.518 197.417 208.477 195.774L206.371 192.263C209.368 191.824 213.13 191.373 216.816 191.197C223.854 190.796 230.909 190.796 237.946 191.197C241.194 191.498 244.367 192.038 246.9 192.527C247.25 194.494 247.138 196.516 246.574 198.433Z" fill="black"/>
<path d="M233.244 200.063C220.629 197.793 216.678 191.285 216.678 191.285C221.281 186.746 219.513 174.344 217.932 167.534L223.588 172.224L231.288 178.62C231.059 179.645 230.896 180.684 230.799 181.73C230.385 185.906 231.463 189.705 237.608 191.16C237.633 191.122 242.724 197.242 233.244 200.063Z" fill="#B97964"/>
<path d="M231.313 178.582C231.084 179.607 230.921 180.646 230.824 181.692C227.952 181.115 224.115 178.055 223.713 175.121C223.572 174.15 223.539 173.166 223.613 172.187L231.313 178.582Z" fill="#A76755"/>
<path d="M236.542 143.746C241.132 145.815 243.677 158.719 237.796 161.503C231.915 164.287 227.864 139.821 236.542 143.746Z" fill="#263238"/>
<path d="M215.688 157.703C217.657 166.744 218.346 172.124 223.688 176.25C225.411 177.607 227.471 178.467 229.647 178.739C231.823 179.011 234.031 178.683 236.035 177.791C238.038 176.899 239.759 175.477 241.013 173.678C242.267 171.88 243.006 169.773 243.15 167.585C243.853 159.17 240.517 145.803 230.999 143.244C228.954 142.635 226.785 142.574 224.71 143.068C222.634 143.562 220.725 144.593 219.173 146.058C217.622 147.522 216.483 149.37 215.872 151.414C215.26 153.458 215.196 155.627 215.688 157.703Z" fill="#B97964"/>
<path d="M205.142 148.737C200.74 150.681 203.236 156.7 206.233 160.525C210.384 165.841 214.773 168.324 217.757 165.879C220.441 164.537 222.209 156.625 219.876 151.747C224.002 149.025 232.567 152.386 235.238 147.985C237.909 143.583 239.815 143.947 244.517 146.856C249.22 149.765 252.982 138.266 240.755 136.122C247.527 139.169 245.972 145.1 241.019 139.018C237.52 134.73 229.131 129.99 223.3 136.385C218.999 141.05 203.888 133.839 205.142 148.737Z" fill="#263238"/>
<path d="M213.543 167.133C215.01 168.897 217.037 170.106 219.287 170.557C222.133 171.033 222.773 168.4 221.331 165.842C220.077 163.547 216.967 160.525 214.421 161.202C211.876 161.879 211.7 164.914 213.543 167.133Z" fill="#B97964"/>
<path d="M229.896 158.606C230.009 159.346 230.498 159.86 230.987 159.86C231.476 159.86 231.777 159.158 231.651 158.418C231.526 157.678 231.062 157.164 230.573 157.164C230.084 157.164 229.783 157.854 229.896 158.606Z" fill="#263238"/>
<path d="M238.26 157.603C238.373 158.343 238.862 158.857 239.351 158.857C239.84 158.857 240.141 158.142 240.028 157.402C239.915 156.662 239.426 156.148 238.937 156.148C238.448 156.148 238.26 156.863 238.26 157.603Z" fill="#263238"/>
<path d="M235.752 158.292C236.996 160.458 238.523 162.448 240.291 164.211C239.829 164.634 239.279 164.95 238.681 165.137C238.083 165.323 237.451 165.375 236.83 165.29L235.752 158.292Z" fill="#A24E3F"/>
<path d="M234.034 167.647C233.165 167.658 232.304 167.493 231.5 167.164C230.696 166.834 229.967 166.346 229.357 165.729C229.316 165.687 229.293 165.63 229.293 165.572C229.293 165.513 229.316 165.457 229.357 165.415C229.399 165.375 229.455 165.352 229.513 165.352C229.572 165.352 229.628 165.375 229.67 165.415C230.347 166.071 231.163 166.567 232.057 166.864C232.952 167.162 233.902 167.254 234.837 167.133C234.866 167.13 234.895 167.132 234.923 167.141C234.951 167.149 234.977 167.163 234.999 167.182C235.022 167.201 235.04 167.224 235.053 167.25C235.066 167.276 235.073 167.305 235.075 167.334C235.08 167.362 235.079 167.391 235.073 167.419C235.066 167.447 235.053 167.473 235.035 167.496C235.017 167.518 234.995 167.537 234.969 167.55C234.944 167.563 234.915 167.571 234.887 167.572C234.604 167.614 234.319 167.64 234.034 167.647Z" fill="#263238"/>
<path d="M226.874 156.198C226.804 156.217 226.73 156.217 226.66 156.198C226.559 156.14 226.484 156.045 226.451 155.933C226.418 155.82 226.431 155.7 226.485 155.596C226.815 154.987 227.287 154.465 227.861 154.077C228.435 153.688 229.094 153.444 229.783 153.364C229.888 153.382 229.984 153.436 230.053 153.518C230.122 153.599 230.159 153.703 230.159 153.809C230.159 153.916 230.122 154.019 230.053 154.101C229.984 154.182 229.888 154.237 229.783 154.255C229.242 154.316 228.725 154.51 228.277 154.818C227.829 155.126 227.463 155.54 227.212 156.023C227.172 156.075 227.121 156.118 227.062 156.148C227.004 156.178 226.939 156.195 226.874 156.198Z" fill="#263238"/>
<path d="M241.483 154.242C241.41 154.24 241.34 154.221 241.276 154.186C241.213 154.151 241.159 154.101 241.119 154.041C240.816 153.566 240.407 153.167 239.924 152.875C239.441 152.584 238.897 152.408 238.335 152.361C238.219 152.361 238.107 152.315 238.025 152.232C237.942 152.15 237.896 152.039 237.896 151.922C237.896 151.806 237.942 151.694 238.025 151.612C238.107 151.529 238.219 151.483 238.335 151.483C239.043 151.524 239.731 151.732 240.341 152.092C240.952 152.452 241.468 152.953 241.846 153.552C241.88 153.6 241.903 153.654 241.916 153.711C241.928 153.767 241.929 153.826 241.918 153.883C241.908 153.94 241.886 153.995 241.854 154.043C241.823 154.092 241.782 154.134 241.733 154.167C241.659 154.216 241.572 154.242 241.483 154.242Z" fill="#263238"/>
<g opacity="0.9">
<path opacity="0.9" d="M372.363 299.367C373.429 296.696 375.25 294.393 377.604 292.741C379.958 291.088 382.743 290.158 385.617 290.063H496.17C502.791 290.063 507.268 295.43 506.202 302.064L471.228 510.867C470.611 514.169 468.888 517.162 466.341 519.353C463.795 521.544 460.578 522.801 457.221 522.918H180.012C178.502 522.976 177 522.688 175.619 522.075C174.238 521.462 173.017 520.54 172.048 519.382C171.079 518.223 170.389 516.857 170.031 515.39C169.672 513.922 169.655 512.392 169.98 510.917L199.712 333.163C200.341 329.871 202.07 326.891 204.615 324.71C207.16 322.53 210.37 321.279 213.719 321.162H341.401C354.468 321.112 367.297 312.096 372.363 299.367Z" fill="#407BFF"/>
</g>
<path opacity="0.5" d="M372.363 299.367C373.429 296.696 375.25 294.393 377.604 292.741C379.958 291.088 382.743 290.158 385.617 290.063H496.17C502.791 290.063 507.268 295.43 506.202 302.064L471.228 510.867C470.611 514.169 468.888 517.162 466.341 519.353C463.795 521.544 460.578 522.801 457.221 522.918H180.012C178.502 522.976 177 522.688 175.619 522.075C174.238 521.462 173.017 520.54 172.048 519.382C171.079 518.223 170.389 516.857 170.031 515.39C169.672 513.922 169.655 512.392 169.98 510.917L199.712 333.163C200.341 329.871 202.07 326.891 204.615 324.71C207.16 322.53 210.37 321.279 213.719 321.162H341.401C354.468 321.112 367.297 312.096 372.363 299.367Z" fill="white"/>
<path opacity="0.9" d="M328.36 113.976L244.706 404.653L436.066 459.716L519.708 169.039L328.36 113.976Z" fill="#407BFF"/>
<path opacity="0.7" d="M328.36 113.976L244.706 404.653L436.066 459.716L519.708 169.039L328.36 113.976Z" fill="white"/>
<g style="mix-blend-mode:multiply" opacity="0.9">
<path d="M324.648 126.855L244.706 404.653L429.558 457.848L504.484 170.331L324.648 126.855Z" fill="#407BFF"/>
</g>
<path opacity="0.6" d="M324.648 126.855L244.706 404.653L429.558 457.848L504.484 170.331L324.648 126.855Z" fill="#407BFF"/>
<g opacity="0.9">
<g style="mix-blend-mode:multiply" opacity="0.9">
<path d="M324.648 126.855L244.706 404.653L429.558 457.848L504.484 170.331L324.648 126.855Z" fill="white"/>
</g>
<path opacity="0.6" d="M324.648 126.855L244.706 404.653L429.558 457.848L504.484 170.331L324.648 126.855Z" fill="white"/>
</g>
<path d="M392.406 205.554C404.948 191.212 403.489 169.418 389.147 156.876C374.806 144.334 353.012 145.793 340.47 160.135C327.927 174.477 329.386 196.271 343.728 208.813C358.07 221.355 379.864 219.896 392.406 205.554Z" fill="#407BFF"/>
<path d="M358.87 209.079C353.676 207.579 349.045 204.572 345.56 200.44C342.075 196.307 339.893 191.234 339.291 185.862C338.689 180.49 339.693 175.06 342.176 170.258C344.66 165.457 348.511 161.499 353.243 158.886C357.975 156.273 363.376 155.121 368.763 155.577C374.149 156.032 379.28 158.075 383.506 161.446C387.732 164.817 390.863 169.365 392.505 174.516C394.146 179.666 394.224 185.188 392.728 190.382C391.735 193.835 390.071 197.058 387.832 199.867C385.592 202.676 382.821 205.015 379.676 206.752C376.531 208.489 373.075 209.588 369.505 209.987C365.934 210.387 362.321 210.078 358.87 209.079Z" fill="white"/>
<path d="M379.743 237.866L318.836 220.344L314.897 234.034L375.804 251.556L379.743 237.866Z" fill="#407BFF"/>
<path d="M319.274 345.203L285.699 335.543L270.389 388.762L303.964 398.421L319.274 345.203Z" fill="#407BFF"/>
<path d="M438.078 379.387L404.504 369.728L389.193 422.947L422.768 432.606L438.078 379.387Z" fill="#407BFF"/>
<path d="M378.67 362.301L345.095 352.642L329.785 405.86L363.36 415.519L378.67 362.301Z" fill="#407BFF"/>
<path d="M428.958 252.014L387.755 240.161L383.816 253.851L425.019 265.704L428.958 252.014Z" fill="#407BFF"/>
<path d="M461.05 293.457L310.278 250.081L308.655 255.721L459.428 299.097L461.05 293.457Z" fill="white"/>
<path d="M381.802 283.633L306.831 262.065L305.208 267.705L380.179 289.273L381.802 283.633Z" fill="white"/>
<path d="M444.772 301.75L394.627 287.323L393.004 292.963L443.149 307.39L444.772 301.75Z" fill="white"/>
<path d="M423.906 308.713L303.382 274.039L301.76 279.679L422.284 314.353L423.906 308.713Z" fill="white"/>
<path d="M436.951 327.132L298.557 286.767L296.914 292.401L435.307 332.766L436.951 327.132Z" fill="white"/>
<path d="M312.486 302.618L296.482 298.014L294.859 303.654L310.863 308.258L312.486 302.618Z" fill="white"/>
<path d="M396.046 326.661L325.329 306.316L323.707 311.956L394.423 332.301L396.046 326.661Z" fill="white"/>
<path d="M443.812 353.38L293.039 310.005L291.417 315.645L442.189 359.02L443.812 353.38Z" fill="white"/>
<path d="M306.089 124.146L232.542 417.582L425.658 465.999L499.192 172.563L306.089 124.146Z" fill="#407BFF"/>
<path opacity="0.8" d="M306.089 124.146L232.542 417.582L425.658 465.999L499.192 172.563L306.089 124.146Z" fill="white"/>
<path d="M361.526 222.617C378.682 214.331 385.873 193.705 377.586 176.549C369.3 159.393 348.675 152.202 331.519 160.489C314.363 168.775 307.172 189.4 315.458 206.556C323.745 223.712 344.37 230.903 361.526 222.617Z" fill="#407BFF"/>
<path d="M373.39 196.5C376.107 181.649 366.271 167.406 351.42 164.689C336.568 161.971 322.326 171.807 319.608 186.659C316.891 201.51 326.727 215.752 341.578 218.47C356.429 221.188 370.672 211.352 373.39 196.5Z" fill="white"/>
<path d="M361.728 246.153L300.252 230.745L296.789 244.563L358.265 259.971L361.728 246.153Z" fill="#407BFF"/>
<path d="M305.002 355.52L271.114 347.027L257.651 400.742L291.54 409.235L305.002 355.52Z" fill="#407BFF"/>
<path d="M424.902 385.574L391.014 377.081L377.551 430.796L411.44 439.29L424.902 385.574Z" fill="#407BFF"/>
<path d="M364.957 370.547L331.068 362.054L317.606 415.769L351.494 424.262L364.957 370.547Z" fill="#407BFF"/>
<path d="M411.388 258.594L369.8 248.171L366.337 261.989L407.925 272.412L411.388 258.594Z" fill="#407BFF"/>
<path d="M444.9 298.898L292.719 260.757L291.292 266.45L443.473 304.59L444.9 298.898Z" fill="white"/>
<path d="M365.365 291.814L289.694 272.849L288.267 278.542L363.938 297.507L365.365 291.814Z" fill="white"/>
<path d="M428.919 307.739L378.306 295.054L376.879 300.746L427.492 313.431L428.919 307.739Z" fill="white"/>
<path d="M408.307 315.434L286.657 284.945L285.23 290.638L406.88 321.126L408.307 315.434Z" fill="white"/>
<path d="M423.47 332.098L283.635 297.051L282.209 302.744L422.044 337.79L423.47 332.098Z" fill="white"/>
<path d="M296.749 313.207L280.595 309.159L279.168 314.851L295.322 318.9L296.749 313.207Z" fill="white"/>
<path d="M381.09 334.33L309.713 316.441L308.286 322.134L379.663 340.023L381.09 334.33Z" fill="white"/>
<path d="M429.746 359.383L277.564 321.242L276.138 326.935L428.319 365.075L429.746 359.383Z" fill="white"/>
<path opacity="0.5" d="M298.527 342.957C298.765 338.254 302.879 334.931 308.471 334.931H419.037C425.658 334.931 432.041 339.558 433.295 345.276L466.488 512.51C467.742 518.228 463.378 522.868 456.757 522.868H179.51C172.876 522.868 166.494 518.228 165.24 512.51L137.94 372.074C136.686 366.356 141.05 361.716 147.684 361.716H275.316C288.42 361.716 298 353.942 298.527 342.957Z" fill="#407BFF"/>
</svg>
